<?xml version="1.0" standalone="no"?>
<!DOCTYPE svg PUBLIC "-//W3C//DTD SVG 20010904//EN"
 "http://www.w3.org/TR/2001/REC-SVG-20010904/DTD/svg10.dtd">
<svg version="1.0" xmlns="http://www.w3.org/2000/svg"
 width="2521.000000pt" height="2521.000000pt" viewBox="0 0 2521.000000 2521.000000"
 preserveAspectRatio="xMidYMid meet">
<metadata>
Created by potrace 1.14, written by Peter Selinger 2001-2017
</metadata>
<g transform="translate(0.000000,2521.000000) scale(0.100000,-0.100000)"
fill="#000000" stroke="none">
<path d="M12377 22854 c-1 -1 -76 -5 -167 -8 -234 -10 -395 -20 -490 -31 -19
-3 -66 -7 -105 -10 -70 -5 -91 -8 -235 -25 -41 -5 -97 -12 -125 -15 -27 -3
-59 -8 -71 -10 -11 -3 -40 -7 -65 -10 -24 -3 -55 -8 -69 -10 -14 -3 -43 -8
-65 -11 -54 -7 -310 -53 -360 -64 -22 -5 -53 -11 -70 -14 -49 -9 -62 -12 -270
-61 -110 -25 -208 -48 -218 -50 -9 -2 -21 -6 -25 -9 -5 -3 -22 -8 -38 -11 -64
-11 -391 -107 -581 -170 -235 -78 -602 -215 -738 -275 -22 -10 -85 -36 -139
-59 -200 -85 -628 -294 -826 -404 -147 -81 -410 -234 -487 -284 -29 -18 -79
-49 -110 -69 -296 -188 -726 -497 -937 -674 -11 -10 -82 -69 -156 -131 -138
-115 -150 -125 -330 -289 -179 -162 -602 -591 -727 -736 -88 -103 -120 -140
-133 -153 -38 -40 -287 -350 -387 -481 -185 -244 -513 -723 -513 -749 0 -5 -3
-11 -7 -13 -7 -3 -106 -161 -156 -248 -43 -76 -156 -278 -187 -335 -72 -132
-310 -616 -310 -631 0 -2 -13 -32 -29 -66 -96 -206 -250 -604 -351 -908 -39
-115 -111 -350 -116 -377 -2 -12 -9 -35 -15 -50 -9 -24 -85 -311 -94 -353 -2
-8 -8 -33 -13 -55 -6 -22 -13 -51 -16 -65 -2 -14 -11 -54 -20 -90 -8 -36 -18
-78 -21 -95 -3 -16 -8 -37 -10 -45 -2 -8 -4 -18 -4 -22 -1 -5 -584 -8 -1296
-8 l-1295 0 2 -2072 3 -2072 1292 0 1292 0 17 -75 c74 -343 195 -790 285
-1053 11 -31 22 -66 24 -78 2 -11 6 -24 9 -29 3 -5 28 -71 55 -147 70 -202
176 -467 262 -660 86 -195 125 -277 219 -464 59 -118 123 -242 141 -275 19
-33 43 -78 54 -100 11 -22 23 -41 28 -43 4 -2 7 -8 7 -12 0 -7 119 -214 160
-280 5 -8 37 -60 71 -115 65 -105 269 -416 278 -425 4 -3 31 -41 61 -85 30
-44 117 -163 193 -264 125 -165 160 -210 192 -245 6 -6 26 -31 45 -56 19 -25
37 -47 40 -50 3 -3 28 -32 55 -65 47 -56 86 -102 110 -129 6 -6 28 -31 49 -56
209 -239 668 -700 863 -867 12 -11 48 -42 80 -70 32 -28 92 -80 133 -115 41
-35 84 -71 95 -80 11 -10 49 -40 85 -69 36 -28 76 -61 90 -73 34 -28 272 -206
388 -290 540 -388 1256 -794 1877 -1061 272 -117 521 -212 820 -313 141 -48
371 -120 406 -127 9 -2 47 -12 85 -24 75 -22 334 -89 374 -97 14 -3 70 -16
125 -29 55 -13 114 -25 130 -28 17 -3 63 -12 102 -21 40 -9 87 -18 105 -21 37
-7 250 -44 288 -51 14 -2 43 -6 65 -9 22 -3 49 -7 60 -9 12 -2 48 -7 80 -11
33 -4 69 -9 80 -11 11 -2 63 -9 115 -14 52 -6 111 -13 130 -15 19 -3 60 -7 90
-10 30 -3 75 -7 100 -10 25 -2 86 -7 135 -10 50 -4 110 -8 135 -10 269 -23
1098 -23 1294 0 17 2 76 6 131 10 55 3 120 8 145 11 45 4 102 10 195 20 28 3
102 12 165 20 63 8 133 17 155 20 22 3 65 9 95 14 30 5 75 12 100 15 25 3 52
8 60 10 8 2 35 7 60 10 25 4 65 11 90 16 25 6 59 12 76 14 26 4 101 19 294 60
478 102 1201 326 1625 504 11 5 43 18 70 29 520 216 956 440 1508 776 77 47
412 271 512 342 275 196 663 504 855 680 19 18 46 42 60 54 175 151 548 524
770 770 41 46 80 88 85 94 11 12 213 252 232 276 7 8 43 53 81 100 164 202
527 706 584 811 9 17 23 38 30 47 8 9 24 33 35 52 11 19 44 73 73 120 62 101
182 305 220 375 15 28 50 92 78 143 65 119 236 466 297 602 26 58 55 123 65
145 10 22 35 81 55 130 20 50 43 104 50 120 7 17 31 77 53 135 21 58 43 114
47 125 60 154 208 603 249 755 8 30 27 98 41 150 28 104 103 409 116 479 5 23
13 60 19 80 l10 37 1272 0 1273 0 3 2072 2 2072 -1277 2 -1276 3 -33 145 c-18
80 -36 159 -39 175 -10 51 -85 335 -111 422 -14 45 -27 90 -29 100 -8 42 -149
469 -192 583 -13 36 -34 90 -45 120 -11 30 -24 64 -29 75 -4 11 -31 79 -59
150 -28 72 -58 144 -65 160 -43 97 -65 146 -65 149 0 7 -82 180 -175 371 -103
211 -269 518 -373 689 -37 61 -71 119 -77 128 -60 102 -234 368 -335 512 -100
143 -137 196 -157 221 -13 17 -27 35 -31 40 -101 135 -152 201 -282 360 -146
179 -188 229 -235 279 -11 12 -51 57 -90 101 -180 205 -520 545 -760 760 -55
50 -102 92 -105 95 -14 16 -271 229 -380 316 -123 99 -348 267 -445 334 -27
19 -52 38 -55 41 -7 8 -404 269 -463 305 -179 108 -314 188 -355 211 -23 12
-63 35 -90 50 -275 155 -639 332 -962 468 -102 43 -198 83 -215 90 -123 53
-727 264 -799 280 -11 2 -75 20 -141 40 -136 40 -471 127 -579 150 -39 8 -134
28 -211 44 -77 16 -156 32 -175 35 -43 7 -79 14 -145 26 -46 8 -72 13 -165 26
-19 3 -46 7 -60 9 -14 3 -47 7 -75 10 -27 3 -61 8 -75 10 -45 8 -84 13 -155
20 -38 4 -77 8 -85 10 -8 2 -49 6 -90 9 -41 4 -89 9 -106 11 -17 2 -76 6 -130
10 -54 3 -112 7 -129 10 -84 10 -898 27 -908 19z m683 -3647 c25 -2 83 -7 130
-11 47 -4 99 -9 115 -11 17 -2 55 -7 85 -10 77 -8 131 -14 160 -20 14 -3 45
-7 70 -10 25 -3 56 -7 70 -10 14 -3 53 -10 87 -15 34 -6 115 -21 180 -35 65
-14 127 -27 139 -29 38 -7 378 -97 444 -118 236 -73 597 -206 727 -268 34 -17
65 -30 68 -30 13 0 374 -180 475 -237 173 -98 181 -103 275 -161 134 -82 230
-145 233 -154 2 -5 8 -8 14 -8 6 0 27 -13 48 -30 21 -16 42 -30 48 -30 6 0 12
-3 14 -8 2 -4 37 -32 78 -62 70 -51 391 -303 422 -332 7 -7 61 -56 118 -107
247 -223 523 -516 725 -771 33 -41 62 -77 65 -80 3 -3 17 -21 30 -40 26 -37
38 -52 56 -74 64 -71 361 -529 449 -691 20 -38 41 -75 46 -80 31 -40 257 -516
319 -675 10 -25 31 -79 48 -120 47 -120 105 -290 100 -295 -3 -3 -2827 -4
-6276 -3 l-6271 3 43 125 c142 408 336 818 578 1222 65 109 246 385 282 429
12 14 28 36 36 49 22 32 230 300 261 335 14 17 59 68 100 115 246 285 668 684
914 865 22 17 42 32 45 35 3 4 23 19 45 35 22 17 42 32 45 35 3 3 16 13 30 22
14 9 48 33 75 53 95 67 300 202 402 263 193 117 266 156 498 271 287 142 515
237 820 340 140 47 409 127 465 137 14 3 43 10 65 16 22 5 47 12 55 13 85 19
210 46 230 50 96 18 312 55 345 59 22 3 78 10 125 16 179 22 199 24 390 36 58
3 107 7 108 9 5 5 697 -3 752 -8z m5840 -8676 c-1 -21 -124 -357 -160 -436 -9
-22 -37 -85 -60 -140 -88 -207 -248 -515 -398 -765 -68 -113 -256 -398 -304
-460 -11 -14 -39 -50 -61 -81 -263 -353 -634 -753 -952 -1024 -38 -33 -72 -63
-75 -66 -3 -3 -57 -47 -120 -98 -140 -111 -121 -96 -205 -158 -38 -29 -81 -61
-95 -71 -23 -18 -331 -222 -375 -249 -119 -72 -230 -136 -231 -132 -1 2 -10
-4 -20 -13 -51 -45 -500 -258 -839 -398 -11 -4 -60 -22 -110 -40 -49 -17 -103
-37 -120 -43 -16 -7 -32 -12 -35 -13 -3 0 -12 -3 -20 -6 -203 -75 -715 -202
-975 -243 -151 -24 -158 -25 -260 -39 -76 -11 -99 -13 -280 -31 -285 -27 -887
-27 -1155 0 -25 3 -70 7 -100 10 -106 11 -145 16 -180 21 -19 3 -51 7 -70 9
-64 8 -114 16 -245 40 -164 30 -165 31 -255 50 -41 9 -82 18 -90 20 -146 31
-632 175 -725 215 -11 5 -67 27 -125 49 -126 48 -270 107 -365 150 -165 76
-532 267 -615 321 -8 5 -28 17 -45 26 -106 60 -544 354 -591 399 -6 5 -26 21
-44 35 -248 184 -599 506 -840 770 -114 125 -119 130 -165 186 -22 26 -45 52
-50 58 -75 78 -339 438 -467 636 -165 254 -352 595 -452 820 -16 36 -42 92
-57 125 -64 141 -222 559 -214 567 7 7 12545 5 12545 -1z"/>
</g>
</svg>
